<?xml version="1.0" standalone="no"?>
<!DOCTYPE svg PUBLIC "-//W3C//DTD SVG 20010904//EN"
 "http://www.w3.org/TR/2001/REC-SVG-20010904/DTD/svg10.dtd">
<svg version="1.0" xmlns="http://www.w3.org/2000/svg"
 width="290.000000pt" height="90.000000pt" viewBox="0 0 290.000000 90.000000"
 preserveAspectRatio="xMidYMid meet">
<metadata>
Created by potrace 1.16, written by Peter Selinger 2001-2019
</metadata>
<g transform="translate(0.000000,90.000000) scale(0.100000,-0.100000)"
fill="#000000" stroke="none">
<path d="M1360 445 l0 -215 50 0 50 0 0 215 0 215 -50 0 -50 0 0 -215z"/>
<path d="M2720 591 c0 -38 -2 -40 -30 -39 -21 1 -40 -8 -60 -27 l-30 -29 0 27
c0 26 -2 27 -50 27 l-50 0 0 -160 0 -160 50 0 50 0 0 93 c0 59 5 99 13 109 10
14 74 38 100 38 4 0 7 -33 7 -74 0 -40 5 -88 11 -106 14 -38 57 -60 119 -60
40 0 40 0 40 39 0 37 -2 40 -32 43 l-33 3 -3 78 -3 77 31 0 c28 0 30 2 30 40
0 38 -2 40 -30 40 -28 0 -30 2 -30 40 l0 40 -50 0 -50 0 0 -39z"/>
<path d="M1107 548 c-110 -29 -152 -176 -76 -263 37 -42 86 -59 151 -53 62 6
96 31 127 91 19 38 22 56 16 93 -9 62 -59 118 -120 133 -50 12 -47 12 -98 -1z
m89 -86 c58 -39 32 -152 -36 -152 -59 0 -94 96 -50 140 20 20 65 26 86 12z"/>
<path d="M1686 550 c-15 -5 -37 -17 -47 -26 -18 -16 -19 -16 -19 4 0 20 -5 22
-50 22 l-50 0 0 -160 0 -160 50 0 50 0 0 98 c0 116 12 142 65 142 53 0 65 -26
65 -142 l0 -98 45 0 45 0 0 93 c0 112 12 141 59 145 60 6 71 -16 71 -135 l0
-103 50 0 50 0 0 105 c0 148 -24 199 -101 218 -34 9 -87 -7 -116 -35 l-23 -21
-22 21 c-21 19 -71 43 -86 41 -4 0 -20 -5 -36 -9z"/>
<path d="M2206 550 c-39 -12 -66 -38 -87 -85 -51 -110 17 -235 127 -235 27 0
51 7 68 21 l26 20 0 -20 c0 -18 6 -21 50 -21 l50 0 0 160 0 160 -50 0 c-38 0
-50 -4 -50 -15 0 -14 -3 -14 -22 -1 -32 19 -78 26 -112 16z m114 -100 c44 -44
11 -140 -47 -140 -36 0 -73 43 -73 83 0 66 75 102 120 57z"/>
</g>
</svg>
